<svg width="397" height="397" viewBox="0 0 397 397" fill="none" xmlns="http://www.w3.org/2000/svg">
<mask id="mask0_28938_3523" style="mask-type:alpha" maskUnits="userSpaceOnUse" x="102" y="58" width="237" height="259">
<path fill-rule="evenodd" clip-rule="evenodd" d="M271.181 315.061C272.042 316.507 273.927 316.964 275.333 316.039C283.739 310.509 291.678 303.987 298.982 296.475C353.099 240.819 351.901 151.879 296.307 97.8234C242.585 45.5881 157.728 45.0405 103.242 95.2833C101.996 96.4326 101.987 98.3948 103.202 99.5766L149.352 144.449C150.485 145.551 152.276 145.578 153.491 144.567C180.772 121.865 221.328 122.944 247.314 148.211C275.111 175.239 275.71 219.708 248.651 247.537C245.681 250.591 242.502 253.318 239.157 255.717C237.853 256.653 237.438 258.429 238.26 259.809L271.181 315.061Z" fill="url(#paint0_linear_28938_3523)"/>
<path d="M270.592 78.0164C272.278 79.0276 273.946 80.0787 275.598 81.1672L275.325 81.5826C276.96 82.6603 278.578 83.7764 280.177 84.9302L280.469 84.5249C282.061 85.6735 283.633 86.8613 285.187 88.0851L284.879 88.4754C286.415 89.6853 287.932 90.9326 289.428 92.2162L289.753 91.8373C291.242 93.1147 292.71 94.4294 294.158 95.7796L293.818 96.1428C294.537 96.8133 295.251 97.4933 295.959 98.1818C296.693 98.8957 297.417 99.616 298.133 100.342L298.486 99.9923C299.926 101.454 301.329 102.939 302.692 104.447L302.323 104.782C303.693 106.299 305.024 107.838 306.316 109.4L306.699 109.083C308.006 110.662 309.275 112.262 310.503 113.884L310.105 114.187C311.338 115.817 312.532 117.468 313.684 119.139L314.093 118.858C315.257 120.545 316.383 122.251 317.465 123.978L317.042 124.244C318.126 125.975 319.169 127.724 320.17 129.49L320.603 129.245C321.613 131.027 322.583 132.825 323.509 134.641L323.065 134.868C323.992 136.686 324.877 138.519 325.72 140.368L326.172 140.161C327.021 142.024 327.828 143.901 328.592 145.793L328.131 145.979C328.894 147.87 329.614 149.775 330.292 151.691L330.761 151.525C331.443 153.454 332.081 155.396 332.676 157.347L332.201 157.493C332.796 159.442 333.346 161.402 333.854 163.371L334.338 163.246C334.849 165.227 335.313 167.218 335.737 169.216L335.25 169.318C335.673 171.311 336.05 173.313 336.385 175.321L336.876 175.239C337.212 177.256 337.506 179.278 337.753 181.305L337.258 181.366C337.506 183.388 337.709 185.415 337.868 187.444L338.364 187.405C338.524 189.442 338.64 191.483 338.711 193.525L338.213 193.541C338.284 195.576 338.311 197.613 338.293 199.649L338.792 199.653C338.775 201.696 338.712 203.739 338.606 205.78L338.11 205.754C338.004 207.787 337.854 209.818 337.66 211.846L338.157 211.893C337.963 213.926 337.723 215.956 337.44 217.982L336.947 217.912C336.666 219.928 336.341 221.938 335.972 223.942L336.46 224.033C336.09 226.041 335.678 228.043 335.22 230.037L334.735 229.924C334.279 231.906 333.78 233.881 333.238 235.846L333.717 235.978C333.173 237.944 332.587 239.902 331.957 241.848L331.483 241.695C330.857 243.629 330.188 245.552 329.476 247.462L329.942 247.637C329.23 249.548 328.474 251.446 327.675 253.331L327.218 253.137C326.425 255.008 325.589 256.865 324.712 258.707L325.161 258.922C324.285 260.762 323.364 262.586 322.403 264.394L321.964 264.161C321.01 265.954 320.015 267.731 318.978 269.491L319.409 269.744C318.374 271.5 317.295 273.236 316.178 274.955L315.762 274.684C314.655 276.386 313.508 278.07 312.32 279.734L312.727 280.024C311.544 281.68 310.319 283.315 309.056 284.93L308.665 284.624C307.417 286.22 306.129 287.797 304.801 289.351L305.179 289.675C303.859 291.221 302.498 292.744 301.099 294.245L300.737 293.907C300.042 294.652 299.337 295.392 298.623 296.126C298.029 296.738 297.43 297.343 296.827 297.941L297.177 298.294C295.96 299.503 294.726 300.685 293.476 301.839L293.138 301.474C291.882 302.633 290.611 303.765 289.324 304.871L289.647 305.247C288.347 306.364 287.031 307.454 285.7 308.515L285.39 308.127C284.055 309.191 282.704 310.228 281.34 311.237L281.635 311.638C280.258 312.657 278.865 313.646 277.459 314.608L277.179 314.198C276.476 314.68 275.768 315.153 275.058 315.62L274.839 315.749C274.616 315.865 274.383 315.942 274.147 315.983L274.232 316.475C273.442 316.613 272.623 316.416 271.975 315.938L272.272 315.536C272.078 315.393 271.902 315.219 271.752 315.017L271.61 314.804L269.964 312.042L269.534 312.298L266.241 306.772L266.243 306.772L266.672 306.517L263.38 300.992L262.95 301.247L259.658 295.723L260.088 295.466L256.796 289.942L256.367 290.197L256.365 290.197L253.074 284.672L253.504 284.416L250.212 278.891L249.782 279.147L246.489 273.622L246.92 273.366L243.628 267.841L243.198 268.097L239.906 262.572L240.335 262.315L238.69 259.553C238.52 259.269 238.414 258.965 238.366 258.657L237.872 258.734C237.754 257.972 237.933 257.186 238.363 256.54L238.779 256.816C238.954 256.553 239.179 256.317 239.449 256.123C240.301 255.512 241.143 254.879 241.974 254.225L241.664 253.832C243.294 252.549 244.879 251.183 246.415 249.736L246.416 249.737L246.759 250.101C247.521 249.383 248.272 248.644 249.01 247.885C249.731 247.144 250.433 246.39 251.115 245.625L250.742 245.292L250.74 245.292C252.113 243.754 253.406 242.17 254.62 240.546L254.622 240.546L255.022 240.845C256.263 239.185 257.422 237.484 258.498 235.746L258.073 235.483L258.071 235.482C259.153 233.735 260.151 231.952 261.065 230.138L261.066 230.138L261.513 230.363C262.444 228.516 263.288 226.637 264.046 224.733L263.581 224.548L263.58 224.548C264.338 222.643 265.009 220.711 265.594 218.759L265.596 218.76L266.075 218.904C266.667 216.928 267.172 214.931 267.588 212.92L267.097 212.819C267.512 210.815 267.838 208.796 268.076 206.77L268.573 206.828C268.814 204.783 268.965 202.728 269.027 200.673L268.526 200.658C268.588 198.615 268.561 196.571 268.445 194.53L268.446 194.53L268.945 194.502C268.829 192.449 268.625 190.4 268.33 188.361L267.835 188.433L267.833 188.433C267.542 186.413 267.163 184.404 266.695 182.411L267.183 182.297C266.714 180.298 266.157 178.316 265.512 176.356L265.037 176.513L265.035 176.513C264.398 174.578 263.676 172.665 262.866 170.78L262.868 170.78L263.327 170.582C262.518 168.699 261.624 166.844 260.644 165.023L260.203 165.261L260.202 165.261C259.239 163.472 258.192 161.716 257.063 160L257.065 159.999L257.482 159.724C256.359 158.016 255.154 156.347 253.868 154.722L253.476 155.033L253.475 155.033C252.216 153.443 250.88 151.896 249.464 150.396L249.466 150.396L249.83 150.052C249.303 149.493 248.764 148.941 248.215 148.396L247.662 147.853C246.971 147.181 246.269 146.525 245.558 145.887L245.225 146.259L245.223 146.261C243.794 144.978 242.325 143.764 240.82 142.619L240.821 142.618L241.124 142.22C239.587 141.051 238.013 139.953 236.408 138.927L236.14 139.349L236.139 139.349C234.525 138.318 232.879 137.36 231.205 136.474L231.206 136.473L231.439 136.031C229.736 135.13 228.004 134.303 226.248 133.551L226.051 134.011L226.05 134.012C224.293 133.26 222.512 132.582 220.711 131.98L220.712 131.979L220.87 131.506C219.046 130.896 217.203 130.362 215.344 129.906L215.225 130.391L215.225 130.391C213.372 129.936 211.504 129.556 209.627 129.254L209.707 128.76C207.812 128.455 205.906 128.228 203.996 128.077L203.956 128.575C202.056 128.425 200.152 128.353 198.247 128.357L198.247 127.857C196.329 127.861 194.412 127.943 192.5 128.102L192.541 128.601L192.54 128.601C190.644 128.759 188.753 128.994 186.872 129.305L186.873 129.304L186.791 128.811C184.902 129.124 183.022 129.514 181.158 129.98L181.279 130.465C179.436 130.926 177.607 131.464 175.799 132.076L175.799 132.075L175.638 131.601C173.827 132.215 172.036 132.904 170.27 133.668L170.469 134.126L170.468 134.127C168.727 134.88 167.011 135.707 165.323 136.607L165.324 136.606L165.089 136.164C163.405 137.063 161.75 138.034 160.128 139.078L160.398 139.497L160.398 139.499C158.806 140.524 157.247 141.619 155.724 142.785L155.724 142.783L155.421 142.386C154.662 142.968 153.911 143.566 153.171 144.182C152.919 144.392 152.639 144.548 152.344 144.651L152.509 145.122C151.786 145.375 150.994 145.36 150.292 145.069L150.484 144.607C150.271 144.519 150.068 144.4 149.882 144.251L149.701 144.091L147.393 141.847L147.044 142.205L142.43 137.718L142.778 137.36L138.163 132.872L137.814 133.231L133.2 128.744L133.548 128.385L128.933 123.898L128.585 124.257L123.969 119.769L124.318 119.41L119.703 114.923L119.355 115.282L114.74 110.795L115.089 110.436L110.473 105.949L110.125 106.307L105.51 101.82L105.858 101.462L103.551 99.2179C103.302 98.9763 103.116 98.6969 102.991 98.3984L102.53 98.5913C102.216 97.8431 102.221 96.9934 102.547 96.2534L103.005 96.4548C103.135 96.1601 103.326 95.8858 103.581 95.6512C104.306 94.9821 105.038 94.3212 105.774 93.6702L105.443 93.2977C106.925 91.9871 108.429 90.7131 109.952 89.4755L110.268 89.8613C111.797 88.6189 113.347 87.4135 114.916 86.245L114.618 85.8466C116.204 84.6656 117.808 83.5209 119.431 82.4151L119.712 82.8276C121.341 81.7181 122.989 80.6467 124.653 79.6133L124.389 79.1902C126.069 78.1472 127.765 77.1419 129.479 76.1762L129.724 76.6113C131.44 75.6443 133.172 74.7156 134.918 73.8264L134.692 73.3828C136.452 72.4864 138.228 71.6298 140.017 70.8122L140.224 71.2651C142.014 70.4474 143.818 69.6688 145.634 68.9303L145.446 68.4695C147.275 67.7258 149.116 67.0226 150.969 66.3589L151.137 66.8269C152.989 66.1636 154.852 65.5401 156.724 64.9571L156.575 64.4813C158.46 63.8947 160.354 63.3505 162.257 62.8449L162.385 63.3252C164.285 62.8204 166.194 62.3565 168.11 61.9327L168.002 61.4453C169.929 61.0193 171.862 60.6343 173.802 60.2901L173.889 60.7812C175.825 60.4377 177.766 60.1347 179.712 59.8729L179.644 59.3794C181.599 59.1163 183.558 58.8936 185.52 58.7127L185.521 58.712L185.567 59.2093C187.523 59.029 189.483 58.8901 191.444 58.7919L191.419 58.2943C193.388 58.1957 195.358 58.1378 197.329 58.1216L197.334 58.6195C199.298 58.6034 201.262 58.629 203.225 58.695L203.242 58.1962C205.211 58.2624 207.18 58.3714 209.146 58.5201L209.11 59.0158C211.067 59.1639 213.023 59.3532 214.975 59.5834L215.032 59.0881C216.989 59.3189 218.942 59.5907 220.889 59.9037L220.81 60.3965C222.748 60.7081 224.682 61.0607 226.608 61.454L226.706 60.9664C228.636 61.3606 230.56 61.7935 232.475 62.2695L232.355 62.7546C234.259 63.2277 236.155 63.7413 238.042 64.2957L238.181 63.8172C240.07 64.372 241.949 64.9674 243.818 65.6034L243.658 66.076C245.514 66.7078 247.36 67.3794 249.194 68.0915L249.374 67.6263C251.208 68.3386 253.029 69.0921 254.838 69.8846L254.639 70.3404C256.434 71.1267 258.217 71.9523 259.984 72.8179L260.204 72.3694C261.97 73.2341 263.72 74.1408 265.456 75.0843L265.219 75.5214C266.94 76.4568 268.647 77.4307 270.336 78.444L270.592 78.0164Z" stroke="#030303" stroke-opacity="0.16" stroke-dasharray="6 6"/>
</mask>
<g mask="url(#mask0_28938_3523)">
<path d="M270.592 78.0164C272.278 79.0276 273.946 80.0787 275.598 81.1672L275.325 81.5826C276.96 82.6603 278.578 83.7764 280.177 84.9302L280.469 84.5249C282.061 85.6735 283.633 86.8613 285.187 88.0851L284.879 88.4754C286.415 89.6853 287.932 90.9326 289.428 92.2162L289.753 91.8373C291.242 93.1147 292.71 94.4294 294.158 95.7796L293.818 96.1428C294.537 96.8133 295.251 97.4933 295.959 98.1818C296.693 98.8957 297.417 99.616 298.133 100.342L298.486 99.9923C299.926 101.454 301.329 102.939 302.692 104.447L302.323 104.782C303.693 106.299 305.024 107.838 306.316 109.4L306.699 109.083C308.006 110.662 309.275 112.262 310.503 113.884L310.105 114.187C311.338 115.817 312.532 117.468 313.684 119.139L314.093 118.858C315.257 120.545 316.383 122.251 317.465 123.978L317.042 124.244C318.126 125.975 319.169 127.724 320.17 129.49L320.603 129.245C321.613 131.027 322.583 132.825 323.509 134.641L323.065 134.868C323.992 136.686 324.877 138.519 325.72 140.368L326.172 140.161C327.021 142.024 327.828 143.901 328.592 145.793L328.131 145.979C328.894 147.87 329.614 149.775 330.292 151.691L330.761 151.525C331.443 153.454 332.081 155.396 332.676 157.347L332.201 157.493C332.796 159.442 333.346 161.402 333.854 163.371L334.338 163.246C334.849 165.227 335.313 167.218 335.737 169.216L335.25 169.318C335.673 171.311 336.05 173.313 336.385 175.321L336.876 175.239C337.212 177.256 337.506 179.278 337.753 181.305L337.258 181.366C337.506 183.388 337.709 185.415 337.868 187.444L338.364 187.405C338.524 189.442 338.64 191.483 338.711 193.525L338.213 193.541C338.284 195.576 338.311 197.613 338.293 199.649L338.792 199.653C338.775 201.696 338.712 203.739 338.606 205.78L338.11 205.754C338.004 207.787 337.854 209.818 337.66 211.846L338.157 211.893C337.963 213.926 337.723 215.956 337.44 217.982L336.947 217.912C336.666 219.928 336.341 221.938 335.972 223.942L336.46 224.033C336.09 226.041 335.678 228.043 335.22 230.037L334.735 229.924C334.279 231.906 333.78 233.881 333.238 235.846L333.717 235.978C333.173 237.944 332.587 239.902 331.957 241.848L331.483 241.695C330.857 243.629 330.188 245.552 329.476 247.462L329.942 247.637C329.23 249.548 328.474 251.446 327.675 253.331L327.218 253.137C326.425 255.008 325.589 256.865 324.712 258.707L325.161 258.922C324.285 260.762 323.364 262.586 322.403 264.394L321.964 264.161C321.01 265.954 320.015 267.731 318.978 269.491L319.409 269.744C318.374 271.5 317.295 273.236 316.178 274.955L315.762 274.684C314.655 276.386 313.508 278.07 312.32 279.734L312.727 280.024C311.544 281.68 310.319 283.315 309.056 284.93L308.665 284.624C307.417 286.22 306.129 287.797 304.801 289.351L305.179 289.675C303.859 291.221 302.498 292.744 301.099 294.245L300.737 293.907C300.042 294.652 299.337 295.392 298.623 296.126C298.029 296.738 297.43 297.343 296.827 297.941L297.177 298.294C295.96 299.503 294.726 300.685 293.476 301.839L293.138 301.474C291.882 302.633 290.611 303.765 289.324 304.871L289.647 305.247C288.347 306.364 287.031 307.454 285.7 308.515L285.39 308.127C284.055 309.191 282.704 310.228 281.34 311.237L281.635 311.638C280.258 312.657 278.865 313.646 277.459 314.608L277.179 314.198C276.476 314.68 275.768 315.153 275.058 315.62L274.839 315.749C274.616 315.865 274.383 315.942 274.147 315.983L274.232 316.475C273.442 316.613 272.623 316.416 271.975 315.938L272.272 315.536C272.078 315.393 271.902 315.219 271.752 315.017L271.61 314.804L269.964 312.042L269.534 312.298L266.241 306.772L266.243 306.772L266.672 306.517L263.38 300.992L262.95 301.247L259.658 295.723L260.088 295.466L256.796 289.942L256.367 290.197L256.365 290.197L253.074 284.672L253.504 284.416L250.212 278.891L249.782 279.147L246.489 273.622L246.92 273.366L243.628 267.841L243.198 268.097L239.906 262.572L240.335 262.315L238.69 259.553C238.52 259.269 238.414 258.965 238.366 258.657L237.872 258.734C237.754 257.972 237.933 257.186 238.363 256.54L238.779 256.816C238.954 256.553 239.179 256.317 239.449 256.123C240.301 255.512 241.143 254.879 241.974 254.225L241.664 253.832C243.294 252.549 244.879 251.183 246.415 249.736L246.416 249.737L246.759 250.101C247.521 249.383 248.272 248.644 249.01 247.885C249.731 247.144 250.433 246.39 251.115 245.625L250.742 245.292L250.74 245.292C252.113 243.754 253.406 242.17 254.62 240.546L254.622 240.546L255.022 240.845C256.263 239.185 257.422 237.484 258.498 235.746L258.073 235.483L258.071 235.482C259.153 233.735 260.151 231.952 261.065 230.138L261.066 230.138L261.513 230.363C262.444 228.516 263.288 226.637 264.046 224.733L263.581 224.548L263.58 224.548C264.338 222.643 265.009 220.711 265.594 218.759L265.596 218.76L266.075 218.904C266.667 216.928 267.172 214.931 267.588 212.92L267.097 212.819C267.512 210.815 267.838 208.796 268.076 206.77L268.573 206.828C268.814 204.783 268.965 202.728 269.027 200.673L268.526 200.658C268.588 198.615 268.561 196.571 268.445 194.53L268.446 194.53L268.945 194.502C268.829 192.449 268.625 190.4 268.33 188.361L267.835 188.433L267.833 188.433C267.542 186.413 267.163 184.404 266.695 182.411L267.183 182.297C266.714 180.298 266.157 178.316 265.512 176.356L265.037 176.513L265.035 176.513C264.398 174.578 263.676 172.665 262.866 170.78L262.868 170.78L263.327 170.582C262.518 168.699 261.624 166.844 260.644 165.023L260.203 165.261L260.202 165.261C259.239 163.472 258.192 161.716 257.063 160L257.065 159.999L257.482 159.724C256.359 158.016 255.154 156.347 253.868 154.722L253.476 155.033L253.475 155.033C252.216 153.443 250.88 151.896 249.464 150.396L249.466 150.396L249.83 150.052C249.303 149.493 248.764 148.941 248.215 148.396L247.662 147.853C246.971 147.181 246.269 146.525 245.558 145.887L245.225 146.259L245.223 146.261C243.794 144.978 242.325 143.764 240.82 142.619L240.821 142.618L241.124 142.22C239.587 141.051 238.013 139.953 236.408 138.927L236.14 139.349L236.139 139.349C234.525 138.318 232.879 137.36 231.205 136.474L231.206 136.473L231.439 136.031C229.736 135.13 228.004 134.303 226.248 133.551L226.051 134.011L226.05 134.012C224.293 133.26 222.512 132.582 220.711 131.98L220.712 131.979L220.87 131.506C219.046 130.896 217.203 130.362 215.344 129.906L215.225 130.391L215.225 130.391C213.372 129.936 211.504 129.556 209.627 129.254L209.707 128.76C207.812 128.455 205.906 128.228 203.996 128.077L203.956 128.575C202.056 128.425 200.152 128.353 198.247 128.357L198.247 127.857C196.329 127.861 194.412 127.943 192.5 128.102L192.541 128.601L192.54 128.601C190.644 128.759 188.753 128.994 186.872 129.305L186.873 129.304L186.791 128.811C184.902 129.124 183.022 129.514 181.158 129.98L181.279 130.465C179.436 130.926 177.607 131.464 175.799 132.076L175.799 132.075L175.638 131.601C173.827 132.215 172.036 132.904 170.27 133.668L170.469 134.126L170.468 134.127C168.727 134.88 167.011 135.707 165.323 136.607L165.324 136.606L165.089 136.164C163.405 137.063 161.75 138.034 160.128 139.078L160.398 139.497L160.398 139.499C158.806 140.524 157.247 141.619 155.724 142.785L155.724 142.783L155.421 142.386C154.662 142.968 153.911 143.566 153.171 144.182C152.919 144.392 152.639 144.548 152.344 144.651L152.509 145.122C151.786 145.375 150.994 145.36 150.292 145.069L150.484 144.607C150.271 144.519 150.068 144.4 149.882 144.251L149.701 144.091L147.393 141.847L147.044 142.205L142.43 137.718L142.778 137.36L138.163 132.872L137.814 133.231L133.2 128.744L133.548 128.385L128.933 123.898L128.585 124.257L123.969 119.769L124.318 119.41L119.703 114.923L119.355 115.282L114.74 110.795L115.089 110.436L110.473 105.949L110.125 106.307L105.51 101.82L105.858 101.462L103.551 99.2179C103.302 98.9763 103.116 98.6969 102.991 98.3984L102.53 98.5913C102.216 97.8431 102.221 96.9934 102.547 96.2534L103.005 96.4548C103.135 96.1601 103.326 95.8858 103.581 95.6512C104.306 94.9821 105.038 94.3212 105.774 93.6702L105.443 93.2977C106.925 91.9871 108.429 90.7131 109.952 89.4755L110.268 89.8613C111.797 88.6189 113.347 87.4135 114.916 86.245L114.618 85.8466C116.204 84.6656 117.808 83.5209 119.431 82.4151L119.712 82.8276C121.341 81.7181 122.989 80.6467 124.653 79.6133L124.389 79.1902C126.069 78.1472 127.765 77.1419 129.479 76.1762L129.724 76.6113C131.44 75.6443 133.172 74.7156 134.918 73.8264L134.692 73.3828C136.452 72.4864 138.228 71.6298 140.017 70.8122L140.224 71.2651C142.014 70.4474 143.818 69.6688 145.634 68.9303L145.446 68.4695C147.275 67.7258 149.116 67.0226 150.969 66.3589L151.137 66.8269C152.989 66.1636 154.852 65.5401 156.724 64.9571L156.575 64.4813C158.46 63.8947 160.354 63.3505 162.257 62.8449L162.385 63.3252C164.285 62.8204 166.194 62.3565 168.11 61.9327L168.002 61.4453C169.929 61.0193 171.862 60.6343 173.802 60.2901L173.889 60.7812C175.825 60.4377 177.766 60.1347 179.712 59.8729L179.644 59.3794C181.599 59.1163 183.558 58.8936 185.52 58.7127L185.521 58.712L185.567 59.2093C187.523 59.029 189.483 58.8901 191.444 58.7919L191.419 58.2943C193.388 58.1957 195.358 58.1378 197.329 58.1216L197.334 58.6195C199.298 58.6034 201.262 58.629 203.225 58.695L203.242 58.1962C205.211 58.2624 207.18 58.3714 209.146 58.5201L209.11 59.0158C211.067 59.1639 213.023 59.3532 214.975 59.5834L215.032 59.0881C216.989 59.3189 218.942 59.5907 220.889 59.9037L220.81 60.3965C222.748 60.7081 224.682 61.0607 226.608 61.454L226.706 60.9664C228.636 61.3606 230.56 61.7935 232.475 62.2695L232.355 62.7546C234.259 63.2277 236.155 63.7413 238.042 64.2957L238.181 63.8172C240.07 64.372 241.949 64.9674 243.818 65.6034L243.658 66.076C245.514 66.7078 247.36 67.3794 249.194 68.0915L249.374 67.6263C251.208 68.3386 253.029 69.0921 254.838 69.8846L254.639 70.3404C256.434 71.1267 258.217 71.9523 259.984 72.8179L260.204 72.3694C261.97 73.2341 263.72 74.1408 265.456 75.0843L265.219 75.5214C266.94 76.4568 268.647 77.4307 270.336 78.444L270.592 78.0164Z" stroke="#030303" stroke-opacity="0.16" stroke-dasharray="6 6"/>
</g>
<mask id="mask1_28938_3523" style="mask-type:alpha" maskUnits="userSpaceOnUse" x="80" y="236" width="189" height="104">
<path fill-rule="evenodd" clip-rule="evenodd" d="M101.347 299.811C93.4113 292.096 86.5842 283.669 80.8681 274.73C79.6761 272.866 80.2999 270.402 82.2001 269.268L135.703 237.349C137.594 236.221 140.032 236.841 141.275 238.659C143.88 242.471 146.902 246.081 150.34 249.424C172.22 270.699 204.43 274.825 230.347 262.046C232.296 261.085 234.692 261.711 235.804 263.577L267.683 317.082C268.823 318.994 268.181 321.476 266.225 322.538C213.608 351.1 146.486 343.702 101.347 299.811Z" fill="url(#paint1_linear_28938_3523)"/>
<path d="M137.178 236.826C138.222 236.674 139.295 236.938 140.171 237.547L140.172 237.546L139.886 237.956C140.213 238.183 140.509 238.465 140.758 238.796L140.862 238.941C141.527 239.914 142.219 240.874 142.938 241.82L143.336 241.517C144.744 243.371 146.257 245.17 147.874 246.905L147.509 247.247C148.311 248.108 149.138 248.953 149.991 249.782C150.737 250.508 151.495 251.213 152.264 251.899L152.597 251.526L152.598 251.524C154.146 252.904 155.74 254.203 157.375 255.422L157.374 255.425L157.075 255.825C158.747 257.071 160.46 258.234 162.211 259.313L162.473 258.888L162.473 258.887C164.233 259.972 166.031 260.97 167.859 261.885L167.859 261.887L167.634 262.334C169.494 263.264 171.386 264.108 173.304 264.863L173.488 264.398L173.488 264.397C175.407 265.153 177.352 265.82 179.318 266.4L179.318 266.403L179.176 266.882C181.166 267.469 183.177 267.968 185.202 268.377L185.301 267.886L185.301 267.884C187.319 268.291 189.35 268.611 191.39 268.839L191.39 268.84L191.335 269.336C193.394 269.567 195.461 269.707 197.53 269.757L197.541 269.258L197.541 269.254C199.596 269.304 201.652 269.265 203.704 269.135L203.705 269.137L203.736 269.637C205.801 269.506 207.86 269.285 209.909 268.975L209.834 268.48L209.833 268.479C211.863 268.172 213.881 267.774 215.882 267.288L215.883 267.291L216 267.777C218.007 267.29 219.998 266.715 221.964 266.05L221.804 265.577L221.802 265.575C223.744 264.92 225.662 264.176 227.551 263.346L227.552 263.349L227.753 263.806C228.699 263.391 229.638 262.954 230.568 262.495C230.991 262.287 231.438 262.162 231.885 262.118L231.835 261.621C232.883 261.517 233.936 261.802 234.77 262.427L234.77 262.427L234.471 262.826C234.781 263.059 235.056 263.346 235.281 263.685L235.375 263.833L236.969 266.509L237.397 266.252L240.586 271.603L240.156 271.859L243.344 277.209L243.772 276.954L246.961 282.304L246.532 282.56L249.72 287.91L250.15 287.655L253.336 293.004L252.908 293.261L256.096 298.611L256.524 298.355L259.713 303.706L259.284 303.961L262.471 309.312L262.9 309.056L266.089 314.407L265.66 314.662L267.254 317.337C267.498 317.748 267.649 318.187 267.712 318.63L268.205 318.559C268.356 319.616 268.074 320.693 267.42 321.528L267.028 321.22C266.754 321.57 266.405 321.871 265.986 322.099C265.117 322.57 264.245 323.032 263.368 323.484L263.597 323.928C261.834 324.837 260.055 325.705 258.262 326.534L258.053 326.082C256.26 326.912 254.453 327.702 252.634 328.452L252.822 328.914C250.99 329.669 249.145 330.386 247.288 331.061L247.117 330.591C245.261 331.266 243.393 331.899 241.516 332.493L241.666 332.969C239.776 333.566 237.876 334.122 235.968 334.638L235.839 334.157C233.933 334.672 232.018 335.146 230.096 335.579L230.205 336.066C228.273 336.502 226.332 336.896 224.386 337.249L224.298 336.758C222.356 337.11 220.408 337.421 218.456 337.692L218.523 338.185C216.561 338.456 214.595 338.687 212.625 338.875L212.578 338.379C210.615 338.567 208.648 338.714 206.679 338.819L206.705 339.318C204.728 339.423 202.75 339.485 200.77 339.508L200.766 339.01C198.794 339.033 196.821 339.014 194.849 338.954L194.833 339.452C192.855 339.392 190.878 339.289 188.904 339.145L188.94 338.648C186.974 338.505 185.01 338.32 183.05 338.094L182.992 338.59C181.027 338.363 179.065 338.096 177.109 337.787L177.189 337.293C175.242 336.985 173.3 336.636 171.365 336.246L171.266 336.735C169.327 336.344 167.396 335.91 165.472 335.437L165.591 334.953C163.678 334.482 161.773 333.97 159.877 333.417L159.738 333.896C157.84 333.342 155.951 332.749 154.073 332.113L154.234 331.64C152.369 331.009 150.514 330.337 148.672 329.625L148.492 330.09C146.649 329.378 144.818 328.626 143 327.833L143.201 327.376C141.397 326.589 139.606 325.762 137.83 324.895L137.61 325.344C135.836 324.478 134.076 323.572 132.332 322.626L132.57 322.188C130.841 321.251 129.128 320.274 127.431 319.259L127.174 319.686C125.481 318.672 123.805 317.619 122.146 316.528L122.421 316.113C120.779 315.032 119.155 313.914 117.549 312.757L117.257 313.161C115.657 312.008 114.075 310.818 112.514 309.589L112.824 309.198C111.28 307.983 109.756 306.731 108.253 305.442L107.926 305.821C106.431 304.539 104.955 303.22 103.502 301.864L103.843 301.498C103.122 300.825 102.405 300.143 101.695 299.453C101.05 298.825 100.412 298.193 99.7809 297.556L99.4274 297.906C98.1536 296.619 96.9084 295.316 95.6944 293.993L96.0619 293.655C94.8426 292.327 93.6542 290.98 92.4956 289.616L92.1161 289.937C90.9447 288.558 89.8038 287.162 88.6941 285.749L89.0855 285.442C87.9725 284.025 86.8908 282.59 85.8401 281.141L85.4354 281.434C84.3742 279.969 83.3461 278.488 82.3483 276.992L82.7629 276.717C82.5133 276.343 82.2655 275.967 82.0199 275.591L81.2893 274.46C81.0339 274.061 80.8748 273.631 80.804 273.196L80.3107 273.276C80.1414 272.235 80.409 271.162 81.0425 270.311L81.4438 270.61C81.7094 270.253 82.0489 269.94 82.4566 269.697L85.1317 268.102L84.875 267.672L84.8743 267.672L90.2252 264.48L90.4819 264.909L95.8321 261.718L95.5761 261.288L95.5754 261.287L100.925 258.097L100.926 258.096L101.182 258.526L106.533 255.333L106.276 254.904L111.626 251.713L111.883 252.142L117.233 248.95L116.976 248.52L122.326 245.329L122.584 245.758L127.933 242.566L127.678 242.137L127.677 242.136L133.028 238.945L133.284 239.375L135.959 237.778C136.368 237.534 136.806 237.383 137.25 237.319L137.178 236.826Z" stroke="#030303" stroke-opacity="0.16" stroke-dasharray="6 6"/>
</mask>
<g mask="url(#mask1_28938_3523)">
<path d="M137.178 236.826C138.222 236.674 139.295 236.938 140.171 237.547L140.172 237.546L139.886 237.956C140.213 238.183 140.509 238.465 140.758 238.796L140.862 238.941C141.527 239.914 142.219 240.874 142.938 241.82L143.336 241.517C144.744 243.371 146.257 245.17 147.874 246.905L147.509 247.247C148.311 248.108 149.138 248.953 149.991 249.782C150.737 250.508 151.495 251.213 152.264 251.899L152.597 251.526L152.598 251.524C154.146 252.904 155.74 254.203 157.375 255.422L157.374 255.425L157.075 255.825C158.747 257.071 160.46 258.234 162.211 259.313L162.473 258.888L162.473 258.887C164.233 259.972 166.031 260.97 167.859 261.885L167.859 261.887L167.634 262.334C169.494 263.264 171.386 264.108 173.304 264.863L173.488 264.398L173.488 264.397C175.407 265.153 177.352 265.82 179.318 266.4L179.318 266.403L179.176 266.882C181.166 267.469 183.177 267.968 185.202 268.377L185.301 267.886L185.301 267.884C187.319 268.291 189.35 268.611 191.39 268.839L191.39 268.84L191.335 269.336C193.394 269.567 195.461 269.707 197.53 269.757L197.541 269.258L197.541 269.254C199.596 269.304 201.652 269.265 203.704 269.135L203.705 269.137L203.736 269.637C205.801 269.506 207.86 269.285 209.909 268.975L209.834 268.48L209.833 268.479C211.863 268.172 213.881 267.774 215.882 267.288L215.883 267.291L216 267.777C218.007 267.29 219.998 266.715 221.964 266.05L221.804 265.577L221.802 265.575C223.744 264.92 225.662 264.176 227.551 263.346L227.552 263.349L227.753 263.806C228.699 263.391 229.638 262.954 230.568 262.495C230.991 262.287 231.438 262.162 231.885 262.118L231.835 261.621C232.883 261.517 233.936 261.802 234.77 262.427L234.77 262.427L234.471 262.826C234.781 263.059 235.056 263.346 235.281 263.685L235.375 263.833L236.969 266.509L237.397 266.252L240.586 271.603L240.156 271.859L243.344 277.209L243.772 276.954L246.961 282.304L246.532 282.56L249.72 287.91L250.15 287.655L253.336 293.004L252.908 293.261L256.096 298.611L256.524 298.355L259.713 303.706L259.284 303.961L262.471 309.312L262.9 309.056L266.089 314.407L265.66 314.662L267.254 317.337C267.498 317.748 267.649 318.187 267.712 318.63L268.205 318.559C268.356 319.616 268.074 320.693 267.42 321.528L267.028 321.22C266.754 321.57 266.405 321.871 265.986 322.099C265.117 322.57 264.245 323.032 263.368 323.484L263.597 323.928C261.834 324.837 260.055 325.705 258.262 326.534L258.053 326.082C256.26 326.912 254.453 327.702 252.634 328.452L252.822 328.914C250.99 329.669 249.145 330.386 247.288 331.061L247.117 330.591C245.261 331.266 243.393 331.899 241.516 332.493L241.666 332.969C239.776 333.566 237.876 334.122 235.968 334.638L235.839 334.157C233.933 334.672 232.018 335.146 230.096 335.579L230.205 336.066C228.273 336.502 226.332 336.896 224.386 337.249L224.298 336.758C222.356 337.11 220.408 337.421 218.456 337.692L218.523 338.185C216.561 338.456 214.595 338.687 212.625 338.875L212.578 338.379C210.615 338.567 208.648 338.714 206.679 338.819L206.705 339.318C204.728 339.423 202.75 339.485 200.77 339.508L200.766 339.01C198.794 339.033 196.821 339.014 194.849 338.954L194.833 339.452C192.855 339.392 190.878 339.289 188.904 339.145L188.94 338.648C186.974 338.505 185.01 338.32 183.05 338.094L182.992 338.59C181.027 338.363 179.065 338.096 177.109 337.787L177.189 337.293C175.242 336.985 173.3 336.636 171.365 336.246L171.266 336.735C169.327 336.344 167.396 335.91 165.472 335.437L165.591 334.953C163.678 334.482 161.773 333.97 159.877 333.417L159.738 333.896C157.84 333.342 155.951 332.749 154.073 332.113L154.234 331.64C152.369 331.009 150.514 330.337 148.672 329.625L148.492 330.09C146.649 329.378 144.818 328.626 143 327.833L143.201 327.376C141.397 326.589 139.606 325.762 137.83 324.895L137.61 325.344C135.836 324.478 134.076 323.572 132.332 322.626L132.57 322.188C130.841 321.251 129.128 320.274 127.431 319.259L127.174 319.686C125.481 318.672 123.805 317.619 122.146 316.528L122.421 316.113C120.779 315.032 119.155 313.914 117.549 312.757L117.257 313.161C115.657 312.008 114.075 310.818 112.514 309.589L112.824 309.198C111.28 307.983 109.756 306.731 108.253 305.442L107.926 305.821C106.431 304.539 104.955 303.22 103.502 301.864L103.843 301.498C103.122 300.825 102.405 300.143 101.695 299.453C101.05 298.825 100.412 298.193 99.7809 297.556L99.4274 297.906C98.1536 296.619 96.9084 295.316 95.6944 293.993L96.0619 293.655C94.8426 292.327 93.6542 290.98 92.4956 289.616L92.1161 289.937C90.9447 288.558 89.8038 287.162 88.6941 285.749L89.0855 285.442C87.9725 284.025 86.8908 282.59 85.8401 281.141L85.4354 281.434C84.3742 279.969 83.3461 278.488 82.3483 276.992L82.7629 276.717C82.5133 276.343 82.2655 275.967 82.0199 275.591L81.2893 274.46C81.0339 274.061 80.8748 273.631 80.804 273.196L80.3107 273.276C80.1414 272.235 80.409 271.162 81.0425 270.311L81.4438 270.61C81.7094 270.253 82.0489 269.94 82.4566 269.697L85.1317 268.102L84.875 267.672L84.8743 267.672L90.2252 264.48L90.4819 264.909L95.8321 261.718L95.5761 261.288L95.5754 261.287L100.925 258.097L100.926 258.096L101.182 258.526L106.533 255.333L106.276 254.904L111.626 251.713L111.883 252.142L117.233 248.95L116.976 248.52L122.326 245.329L122.584 245.758L127.933 242.566L127.678 242.137L127.677 242.136L133.028 238.945L133.284 239.375L135.959 237.778C136.368 237.534 136.806 237.383 137.25 237.319L137.178 236.826Z" stroke="#030303" stroke-opacity="0.16" stroke-dasharray="6 6"/>
</g>
<mask id="mask2_28938_3523" style="mask-type:alpha" maskUnits="userSpaceOnUse" x="58" y="164" width="77" height="101">
<path fill-rule="evenodd" clip-rule="evenodd" d="M66.3024 164.918C64.155 164.376 61.97 165.681 61.4972 167.845C54.5727 199.533 58.7217 233.11 73.8611 262.415C74.8977 264.421 77.4154 265.096 79.3548 263.939L133.009 231.93C134.823 230.848 135.471 228.547 134.608 226.62C128.737 213.512 127.083 198.952 129.672 185.009C130.073 182.848 128.787 180.692 126.656 180.154L66.3024 164.918Z" fill="url(#paint2_linear_28938_3523)"/>
<path d="M105.532 174.822L111.568 176.346L111.568 176.345L111.445 176.83L117.481 178.354L117.603 177.869L117.602 177.868L123.638 179.392L123.516 179.877L126.534 180.639C126.995 180.755 127.41 180.958 127.769 181.226L128.068 180.825C128.912 181.454 129.483 182.397 129.674 183.444L129.184 183.534C129.255 183.925 129.266 184.332 129.209 184.742L129.18 184.917C129.017 185.795 128.871 186.677 128.741 187.559L129.235 187.632C128.977 189.388 128.787 191.151 128.662 192.918L128.163 192.882C128.037 194.664 127.979 196.45 127.987 198.235L128.487 198.232C128.496 200.005 128.57 201.777 128.712 203.544L128.214 203.584C128.357 205.362 128.566 207.137 128.843 208.902L129.337 208.824C129.611 210.574 129.951 212.315 130.357 214.043L129.871 214.157C130.279 215.892 130.753 217.615 131.293 219.32L131.77 219.169L131.77 219.168C132.305 220.854 132.902 222.524 133.566 224.173L133.104 224.36C133.27 224.774 133.441 225.186 133.615 225.596L134.151 226.824C134.339 227.243 134.446 227.682 134.477 228.119L134.974 228.083C135.046 229.106 134.751 230.123 134.134 230.928L133.738 230.624C133.508 230.924 133.227 231.191 132.897 231.41L132.754 231.501L130.071 233.101L130.326 233.53L124.96 236.731L124.705 236.301L119.339 239.503L119.595 239.932L114.23 243.133L113.974 242.704L108.608 245.905L108.864 246.333L103.499 249.534L103.243 249.106L97.8779 252.307L98.1332 252.736L92.7673 255.938L92.7679 255.937L92.5126 255.507L87.1473 258.708L87.402 259.139L82.0367 262.339L81.7814 261.91L79.0987 263.511L78.9411 263.598C78.5713 263.794 78.1817 263.917 77.7896 263.972L77.8573 264.466C76.7871 264.614 75.6976 264.319 74.8617 263.645L75.176 263.255C74.8701 263.009 74.6026 262.704 74.3918 262.343L74.3053 262.185C73.8413 261.287 73.3875 260.384 72.9442 259.478L72.4942 259.698C71.8093 258.299 71.1499 256.889 70.5144 255.471L69.9431 254.179L70.4009 253.979C69.5919 252.124 68.8248 250.256 68.0999 248.374L67.6335 248.554C66.9035 246.659 66.2161 244.752 65.5712 242.833L66.0448 242.674C65.4005 240.757 64.799 238.828 64.2399 236.89L63.7599 237.029C63.1974 235.079 62.678 233.119 62.2016 231.151L62.6875 231.034C62.2119 229.069 61.7792 227.095 61.3897 225.115L60.8994 225.212C60.5079 223.221 60.1595 221.224 59.8547 219.221L60.3488 219.146C60.0447 217.148 59.7838 215.144 59.5663 213.137L59.0685 213.191C58.85 211.175 58.675 209.155 58.5436 207.133L59.0438 207.1C58.9128 205.085 58.8248 203.067 58.7807 201.047L58.2809 201.059C58.2366 199.032 58.2355 197.004 58.2784 194.977L58.7786 194.988C58.8213 192.969 58.9073 190.95 59.0369 188.934L58.5385 188.902C58.6685 186.88 58.8414 184.86 59.0585 182.843L59.5558 182.897C59.7719 180.89 60.0313 178.886 60.3341 176.888L59.8399 176.813C60.1433 174.811 60.4887 172.813 60.8788 170.822L60.8802 170.822L61.3712 170.918C61.4682 170.423 61.5677 169.928 61.6701 169.434L61.9856 167.951C62.087 167.487 62.2781 167.07 62.5359 166.711L62.1299 166.42C62.7456 165.563 63.6943 164.992 64.7444 164.838L64.8169 165.332C65.2572 165.267 65.7191 165.286 66.1798 165.403L69.1981 166.165L69.319 165.68L75.3549 167.204L75.3555 167.203L75.2332 167.688L81.269 169.212L81.3907 168.728L87.4258 170.251L87.3035 170.735L93.3393 172.259L93.4609 171.774L99.4961 173.298L99.4968 173.298L99.3751 173.783L105.41 175.306L105.532 174.822Z" stroke="#030303" stroke-opacity="0.16" stroke-dasharray="6 6"/>
</mask>
<g mask="url(#mask2_28938_3523)">
<path d="M105.532 174.822L111.568 176.346L111.568 176.345L111.445 176.83L117.481 178.354L117.603 177.869L117.602 177.868L123.638 179.392L123.516 179.877L126.534 180.639C126.995 180.755 127.41 180.958 127.769 181.226L128.068 180.825C128.912 181.454 129.483 182.397 129.674 183.444L129.184 183.534C129.255 183.925 129.266 184.332 129.209 184.742L129.18 184.917C129.017 185.795 128.871 186.677 128.741 187.559L129.235 187.632C128.977 189.388 128.787 191.151 128.662 192.918L128.163 192.882C128.037 194.664 127.979 196.45 127.987 198.235L128.487 198.232C128.496 200.005 128.57 201.777 128.712 203.544L128.214 203.584C128.357 205.362 128.566 207.137 128.843 208.902L129.337 208.824C129.611 210.574 129.951 212.315 130.357 214.043L129.871 214.157C130.279 215.892 130.753 217.615 131.293 219.32L131.77 219.169L131.77 219.168C132.305 220.854 132.902 222.524 133.566 224.173L133.104 224.36C133.27 224.774 133.441 225.186 133.615 225.596L134.151 226.824C134.339 227.243 134.446 227.682 134.477 228.119L134.974 228.083C135.046 229.106 134.751 230.123 134.134 230.928L133.738 230.624C133.508 230.924 133.227 231.191 132.897 231.41L132.754 231.501L130.071 233.101L130.326 233.53L124.96 236.731L124.705 236.301L119.339 239.503L119.595 239.932L114.23 243.133L113.974 242.704L108.608 245.905L108.864 246.333L103.499 249.534L103.243 249.106L97.8779 252.307L98.1332 252.736L92.7673 255.938L92.7679 255.937L92.5126 255.507L87.1473 258.708L87.402 259.139L82.0367 262.339L81.7814 261.91L79.0987 263.511L78.9411 263.598C78.5713 263.794 78.1817 263.917 77.7896 263.972L77.8573 264.466C76.7871 264.614 75.6976 264.319 74.8617 263.645L75.176 263.255C74.8701 263.009 74.6026 262.704 74.3918 262.343L74.3053 262.185C73.8413 261.287 73.3875 260.384 72.9442 259.478L72.4942 259.698C71.8093 258.299 71.1499 256.889 70.5144 255.471L69.9431 254.179L70.4009 253.979C69.5919 252.124 68.8248 250.256 68.0999 248.374L67.6335 248.554C66.9035 246.659 66.2161 244.752 65.5712 242.833L66.0448 242.674C65.4005 240.757 64.799 238.828 64.2399 236.89L63.7599 237.029C63.1974 235.079 62.678 233.119 62.2016 231.151L62.6875 231.034C62.2119 229.069 61.7792 227.095 61.3897 225.115L60.8994 225.212C60.5079 223.221 60.1595 221.224 59.8547 219.221L60.3488 219.146C60.0447 217.148 59.7838 215.144 59.5663 213.137L59.0685 213.191C58.85 211.175 58.675 209.155 58.5436 207.133L59.0438 207.1C58.9128 205.085 58.8248 203.067 58.7807 201.047L58.2809 201.059C58.2366 199.032 58.2355 197.004 58.2784 194.977L58.7786 194.988C58.8213 192.969 58.9073 190.95 59.0369 188.934L58.5385 188.902C58.6685 186.88 58.8414 184.86 59.0585 182.843L59.5558 182.897C59.7719 180.89 60.0313 178.886 60.3341 176.888L59.8399 176.813C60.1433 174.811 60.4887 172.813 60.8788 170.822L60.8802 170.822L61.3712 170.918C61.4682 170.423 61.5677 169.928 61.6701 169.434L61.9856 167.951C62.087 167.487 62.2781 167.07 62.5359 166.711L62.1299 166.42C62.7456 165.563 63.6943 164.992 64.7444 164.838L64.8169 165.332C65.2572 165.267 65.7191 165.286 66.1798 165.403L69.1981 166.165L69.319 165.68L75.3549 167.204L75.3555 167.203L75.2332 167.688L81.269 169.212L81.3907 168.728L87.4258 170.251L87.3035 170.735L93.3393 172.259L93.4609 171.774L99.4961 173.298L99.4968 173.298L99.3751 173.783L105.41 175.306L105.532 174.822Z" stroke="#030303" stroke-opacity="0.16" stroke-dasharray="6 6"/>
</g>
<mask id="mask3_28938_3523" style="mask-type:alpha" maskUnits="userSpaceOnUse" x="64" y="102" width="83" height="75">
<path fill-rule="evenodd" clip-rule="evenodd" d="M127.605 176.69C129.657 177.208 131.746 176.033 132.493 174.052C135.356 166.462 139.581 159.262 145.174 152.826C146.623 151.159 146.597 148.634 145.013 147.093L100.418 103.732C98.834 102.192 96.2967 102.224 94.8014 103.85C80.4698 119.437 70.3049 137.444 64.2876 156.459C63.6071 158.61 64.9107 160.862 67.0979 161.415L127.605 176.69Z" fill="url(#paint3_linear_28938_3523)"/>
<path d="M93.1257 106.46C93.4614 106.079 93.7996 105.699 94.1401 105.321L95.1698 104.189C95.4904 103.84 95.8646 103.576 96.2671 103.396L96.0618 102.941C97.0232 102.51 98.1274 102.493 99.1114 102.885L98.9273 103.349C99.3401 103.513 99.7297 103.76 100.07 104.09L102.3 106.259L102.648 105.9L107.107 110.236L106.759 110.594L111.218 114.93L111.567 114.572L116.027 118.908L115.678 119.267L120.137 123.603L120.486 123.244L124.946 127.581L124.597 127.939L129.057 132.275L129.405 131.917L133.864 136.253L133.516 136.611L137.976 140.948L138.324 140.589L142.784 144.925L142.435 145.284L144.665 147.452C145.008 147.785 145.266 148.171 145.443 148.584L145.901 148.387C146.318 149.36 146.337 150.468 145.971 151.473L145.503 151.301C145.366 151.676 145.168 152.035 144.91 152.361L144.797 152.498C144.11 153.289 143.443 154.091 142.797 154.904L143.187 155.216C141.888 156.85 140.673 158.528 139.541 160.245L139.124 159.969C137.968 161.721 136.898 163.513 135.914 165.339L136.353 165.577C135.366 167.409 134.465 169.276 133.653 171.171L133.194 170.973C132.885 171.693 132.589 172.418 132.305 173.146L132.026 173.875C131.863 174.306 131.629 174.692 131.343 175.025L131.72 175.351C131.048 176.129 130.119 176.642 129.111 176.776L129.046 176.281C128.617 176.338 128.171 176.317 127.727 176.205L124.702 175.442L124.579 175.925L118.527 174.398L118.651 173.913L112.601 172.386L112.477 172.871L106.427 171.344L106.55 170.859L100.499 169.331L100.376 169.815L94.3252 168.288L94.4483 167.804L88.3972 166.276L88.2748 166.761L82.2238 165.233L82.3475 164.749L76.2964 163.221L76.1727 163.705L70.123 162.178L70.246 161.694L67.2202 160.93L67.0468 160.881C66.647 160.758 66.2849 160.57 65.9694 160.332L65.6669 160.73C64.8064 160.079 64.2453 159.102 64.1292 158.036L64.6263 157.981C64.5839 157.591 64.6095 157.186 64.7145 156.783L64.7646 156.611C65.0715 155.641 65.3891 154.673 65.7176 153.708L65.2458 153.549C65.9038 151.618 66.6034 149.697 67.348 147.79L67.8132 147.971C68.5522 146.078 69.3342 144.198 70.1588 142.331L69.7023 142.13C70.5263 140.265 71.3947 138.415 72.3039 136.58L72.7497 136.801C73.6514 134.981 74.5954 133.176 75.5812 131.388L75.1449 131.148C76.1288 129.363 77.1534 127.595 78.221 125.845L78.6466 126.105C79.7037 124.372 80.8031 122.657 81.9425 120.961L81.527 120.682L81.5256 120.682C82.6613 118.992 83.8396 117.322 85.0568 115.671L85.4581 115.967C86.6616 114.335 87.905 112.722 89.1885 111.13L88.8015 110.818C90.079 109.234 91.3959 107.672 92.7523 106.131L93.1257 106.46Z" stroke="#030303" stroke-opacity="0.16" stroke-dasharray="6 6"/>
</mask>
<g mask="url(#mask3_28938_3523)">
<path d="M93.1257 106.46C93.4614 106.079 93.7996 105.699 94.1401 105.321L95.1698 104.189C95.4904 103.84 95.8646 103.576 96.2671 103.396L96.0618 102.941C97.0232 102.51 98.1274 102.493 99.1114 102.885L98.9273 103.349C99.3401 103.513 99.7297 103.76 100.07 104.09L102.3 106.259L102.648 105.9L107.107 110.236L106.759 110.594L111.218 114.93L111.567 114.572L116.027 118.908L115.678 119.267L120.137 123.603L120.486 123.244L124.946 127.581L124.597 127.939L129.057 132.275L129.405 131.917L133.864 136.253L133.516 136.611L137.976 140.948L138.324 140.589L142.784 144.925L142.435 145.284L144.665 147.452C145.008 147.785 145.266 148.171 145.443 148.584L145.901 148.387C146.318 149.36 146.337 150.468 145.971 151.473L145.503 151.301C145.366 151.676 145.168 152.035 144.91 152.361L144.797 152.498C144.11 153.289 143.443 154.091 142.797 154.904L143.187 155.216C141.888 156.85 140.673 158.528 139.541 160.245L139.124 159.969C137.968 161.721 136.898 163.513 135.914 165.339L136.353 165.577C135.366 167.409 134.465 169.276 133.653 171.171L133.194 170.973C132.885 171.693 132.589 172.418 132.305 173.146L132.026 173.875C131.863 174.306 131.629 174.692 131.343 175.025L131.72 175.351C131.048 176.129 130.119 176.642 129.111 176.776L129.046 176.281C128.617 176.338 128.171 176.317 127.727 176.205L124.702 175.442L124.579 175.925L118.527 174.398L118.651 173.913L112.601 172.386L112.477 172.871L106.427 171.344L106.55 170.859L100.499 169.331L100.376 169.815L94.3252 168.288L94.4483 167.804L88.3972 166.276L88.2748 166.761L82.2238 165.233L82.3475 164.749L76.2964 163.221L76.1727 163.705L70.123 162.178L70.246 161.694L67.2202 160.93L67.0468 160.881C66.647 160.758 66.2849 160.57 65.9694 160.332L65.6669 160.73C64.8064 160.079 64.2453 159.102 64.1292 158.036L64.6263 157.981C64.5839 157.591 64.6095 157.186 64.7145 156.783L64.7646 156.611C65.0715 155.641 65.3891 154.673 65.7176 153.708L65.2458 153.549C65.9038 151.618 66.6034 149.697 67.348 147.79L67.8132 147.971C68.5522 146.078 69.3342 144.198 70.1588 142.331L69.7023 142.13C70.5263 140.265 71.3947 138.415 72.3039 136.58L72.7497 136.801C73.6514 134.981 74.5954 133.176 75.5812 131.388L75.1449 131.148C76.1288 129.363 77.1534 127.595 78.221 125.845L78.6466 126.105C79.7037 124.372 80.8031 122.657 81.9425 120.961L81.527 120.682L81.5256 120.682C82.6613 118.992 83.8396 117.322 85.0568 115.671L85.4581 115.967C86.6616 114.335 87.905 112.722 89.1885 111.13L88.8015 110.818C90.079 109.234 91.3959 107.672 92.7523 106.131L93.1257 106.46Z" stroke="#030303" stroke-opacity="0.16" stroke-dasharray="6 6"/>
</g>
<path d="M248.32 79.9023C248.32 75.4841 251.902 71.9023 256.32 71.9023H338.32C342.739 71.9023 346.32 75.4841 346.32 79.9023V107.902C346.32 112.321 342.739 115.902 338.32 115.902H256.32C251.902 115.902 248.32 112.321 248.32 107.902V79.9023Z" fill="#E8E3E1" fill-opacity="0.7"/>
<path d="M261.178 83.4478C261.136 83.0879 260.963 82.8086 260.66 82.6097C260.357 82.4109 259.985 82.3114 259.545 82.3114C259.223 82.3114 258.941 82.3635 258.7 82.4677C258.46 82.5719 258.273 82.7151 258.138 82.8974C258.006 83.0797 257.94 83.2868 257.94 83.5188C257.94 83.7129 257.986 83.8799 258.078 84.0195C258.173 84.1568 258.294 84.2717 258.44 84.364C258.587 84.454 258.741 84.5285 258.902 84.5877C259.063 84.6445 259.211 84.6907 259.346 84.7262L260.085 84.9251C260.274 84.9748 260.485 85.0434 260.717 85.131C260.951 85.2186 261.175 85.3382 261.388 85.4897C261.603 85.6388 261.781 85.8306 261.92 86.065C262.06 86.2994 262.13 86.587 262.13 86.9279C262.13 87.3209 262.027 87.676 261.821 87.9933C261.617 88.3105 261.319 88.5626 260.926 88.7496C260.536 88.9367 260.061 89.0302 259.502 89.0302C258.981 89.0302 258.53 88.9461 258.149 88.7781C257.77 88.61 257.472 88.3756 257.254 88.0749C257.039 87.7743 256.917 87.4251 256.888 87.0273H257.798C257.821 87.302 257.914 87.5292 258.075 87.7092C258.238 87.8867 258.444 88.0193 258.692 88.1069C258.943 88.1921 259.213 88.2347 259.502 88.2347C259.838 88.2347 260.14 88.1803 260.408 88.0714C260.675 87.9601 260.887 87.8062 261.043 87.6097C261.2 87.4109 261.278 87.1789 261.278 86.9137C261.278 86.6722 261.21 86.4757 261.075 86.3242C260.94 86.1727 260.763 86.0496 260.543 85.9549C260.322 85.8602 260.085 85.7773 259.829 85.7063L258.934 85.4506C258.366 85.2873 257.916 85.0541 257.585 84.7511C257.253 84.448 257.087 84.0515 257.087 83.5614C257.087 83.1542 257.197 82.7991 257.418 82.4961C257.64 82.1907 257.938 81.954 258.312 81.7859C258.689 81.6154 259.109 81.5302 259.573 81.5302C260.042 81.5302 260.459 81.6142 260.823 81.7823C261.188 81.948 261.477 82.1753 261.69 82.4641C261.905 82.753 262.019 83.0808 262.031 83.4478H261.178ZM265.751 89.016C265.226 89.016 264.772 88.9 264.391 88.668C264.012 88.4336 263.72 88.1069 263.514 87.6879C263.31 87.2665 263.209 86.7764 263.209 86.2177C263.209 85.659 263.31 85.1665 263.514 84.7404C263.72 84.3119 264.006 83.9781 264.373 83.739C264.743 83.4975 265.174 83.3768 265.666 83.3768C265.95 83.3768 266.231 83.4241 266.508 83.5188C266.785 83.6135 267.037 83.7674 267.264 83.9805C267.491 84.1912 267.672 84.4705 267.807 84.8185C267.942 85.1665 268.01 85.5951 268.01 86.104V86.4592H263.805V85.7347H267.157C267.157 85.427 267.096 85.1523 266.973 84.9109C266.852 84.6694 266.679 84.4788 266.454 84.3391C266.232 84.1995 265.969 84.1296 265.666 84.1296C265.332 84.1296 265.043 84.2125 264.8 84.3782C264.558 84.5415 264.372 84.7546 264.242 85.0174C264.112 85.2802 264.047 85.5619 264.047 85.8626V86.3455C264.047 86.7575 264.118 87.1067 264.26 87.3931C264.404 87.6772 264.604 87.8938 264.86 88.043C265.116 88.1897 265.413 88.2631 265.751 88.2631C265.971 88.2631 266.17 88.2324 266.348 88.1708C266.528 88.1069 266.683 88.0122 266.813 87.8867C266.943 87.7589 267.044 87.6003 267.115 87.4109L267.925 87.6381C267.839 87.9128 267.696 88.1542 267.495 88.3626C267.294 88.5685 267.045 88.7295 266.749 88.8455C266.453 88.9592 266.121 89.016 265.751 89.016ZM269.285 90.9478V83.4478H270.094V84.3143H270.194C270.255 84.2196 270.34 84.0988 270.449 83.9521C270.561 83.8029 270.719 83.6703 270.925 83.5543C271.134 83.436 271.415 83.3768 271.77 83.3768C272.23 83.3768 272.635 83.4916 272.985 83.7212C273.335 83.9509 273.609 84.2764 273.805 84.6978C274.002 85.1192 274.1 85.6164 274.1 86.1893C274.1 86.7669 274.002 87.2676 273.805 87.6914C273.609 88.1128 273.336 88.4395 272.988 88.6715C272.64 88.9012 272.239 89.016 271.785 89.016C271.434 89.016 271.154 88.958 270.943 88.842C270.732 88.7236 270.57 88.5898 270.456 88.4407C270.343 88.2892 270.255 88.1637 270.194 88.0643H270.123V90.9478H269.285ZM270.108 86.1751C270.108 86.587 270.169 86.9504 270.29 87.2653C270.41 87.5778 270.587 87.8228 270.819 88.0004C271.051 88.1755 271.335 88.2631 271.671 88.2631C272.021 88.2631 272.314 88.1708 272.548 87.9862C272.785 87.7991 272.962 87.5482 273.081 87.2333C273.202 86.9161 273.262 86.5633 273.262 86.1751C273.262 85.7915 273.203 85.4459 273.084 85.1381C272.968 84.828 272.792 84.583 272.555 84.4031C272.321 84.2208 272.026 84.1296 271.671 84.1296C271.33 84.1296 271.044 84.216 270.812 84.3888C270.58 84.5593 270.404 84.7984 270.286 85.1062C270.168 85.4116 270.108 85.7679 270.108 86.1751ZM278.39 88.9023V88.2631L280.79 85.6353C281.072 85.3275 281.304 85.06 281.486 84.8327C281.669 84.6031 281.804 84.3877 281.891 84.1864C281.981 83.9828 282.026 83.7698 282.026 83.5472C282.026 83.2915 281.965 83.0702 281.841 82.8832C281.721 82.6961 281.555 82.5517 281.344 82.4499C281.134 82.3481 280.897 82.2972 280.634 82.2972C280.355 82.2972 280.111 82.3552 279.903 82.4712C279.697 82.5849 279.537 82.7447 279.423 82.9506C279.312 83.1566 279.256 83.3981 279.256 83.6751H278.418C278.418 83.2489 278.516 82.8749 278.713 82.5529C278.909 82.2309 279.177 81.98 279.515 81.8001C279.856 81.6201 280.239 81.5302 280.662 81.5302C281.089 81.5302 281.466 81.6201 281.795 81.8001C282.124 81.98 282.382 82.2227 282.569 82.5281C282.756 82.8335 282.85 83.1732 282.85 83.5472C282.85 83.8147 282.801 84.0763 282.704 84.332C282.61 84.5853 282.444 84.8683 282.207 85.1808C281.973 85.4909 281.647 85.8697 281.231 86.3171L279.597 88.0643V88.1211H282.978V88.9023H278.39ZM284.864 88.9023V88.2631L287.265 85.6353C287.547 85.3275 287.779 85.06 287.961 84.8327C288.143 84.6031 288.278 84.3877 288.366 84.1864C288.456 83.9828 288.501 83.7698 288.501 83.5472C288.501 83.2915 288.439 83.0702 288.316 82.8832C288.195 82.6961 288.03 82.5517 287.819 82.4499C287.608 82.3481 287.371 82.2972 287.109 82.2972C286.829 82.2972 286.585 82.3552 286.377 82.4712C286.171 82.5849 286.011 82.7447 285.898 82.9506C285.786 83.1566 285.731 83.3981 285.731 83.6751H284.893C284.893 83.2489 284.991 82.8749 285.188 82.5529C285.384 82.2309 285.652 81.98 285.99 81.8001C286.331 81.6201 286.713 81.5302 287.137 81.5302C287.563 81.5302 287.941 81.6201 288.27 81.8001C288.599 81.98 288.857 82.2227 289.044 82.5281C289.231 82.8335 289.325 83.1732 289.325 83.5472C289.325 83.8147 289.276 84.0763 289.179 84.332C289.084 84.5853 288.919 84.8683 288.682 85.1808C288.447 85.4909 288.122 85.8697 287.705 86.3171L286.072 88.0643V88.1211H289.452V88.9023H284.864ZM298.186 84.8754V85.6566H293.186V84.8754H298.186ZM307.646 81.6296V88.9023H306.794L302.83 83.1921H302.759V88.9023H301.879V81.6296H302.731L306.708 87.354H306.779V81.6296H307.646ZM311.51 89.016C311.018 89.016 310.586 88.8988 310.214 88.6644C309.845 88.43 309.556 88.1022 309.348 87.6808C309.142 87.2594 309.039 86.7669 309.039 86.2035C309.039 85.6353 309.142 85.1393 309.348 84.7156C309.556 84.2918 309.845 83.9627 310.214 83.7283C310.586 83.494 311.018 83.3768 311.51 83.3768C312.003 83.3768 312.434 83.494 312.803 83.7283C313.175 83.9627 313.463 84.2918 313.669 84.7156C313.878 85.1393 313.982 85.6353 313.982 86.2035C313.982 86.7669 313.878 87.2594 313.669 87.6808C313.463 88.1022 313.175 88.43 312.803 88.6644C312.434 88.8988 312.003 89.016 311.51 89.016ZM311.51 88.2631C311.884 88.2631 312.192 88.1673 312.434 87.9755C312.675 87.7837 312.854 87.5316 312.97 87.2191C313.086 86.9066 313.144 86.5681 313.144 86.2035C313.144 85.8389 313.086 85.4992 312.97 85.1843C312.854 84.8694 312.675 84.6149 312.434 84.4208C312.192 84.2267 311.884 84.1296 311.51 84.1296C311.136 84.1296 310.828 84.2267 310.587 84.4208C310.346 84.6149 310.167 84.8694 310.051 85.1843C309.935 85.4992 309.877 85.8389 309.877 86.2035C309.877 86.5681 309.935 86.9066 310.051 87.2191C310.167 87.5316 310.346 87.7837 310.587 87.9755C310.828 88.1673 311.136 88.2631 311.51 88.2631ZM319.721 83.4478L317.704 88.9023H316.852L314.835 83.4478H315.744L317.25 87.7944H317.307L318.812 83.4478H319.721ZM327.092 81.6296V88.9023H326.211V82.5529H326.169L324.393 83.7319V82.837L326.211 81.6296H327.092ZM329.93 87.4109V86.6864L333.126 81.6296H333.652V82.7518H333.297L330.882 86.5728V86.6296H335.186V87.4109H329.93ZM333.353 88.9023V87.1907V86.8533V81.6296H334.191V88.9023H333.353Z" fill="black" fill-opacity="0.2"/>
<g filter="url(#filter0_i_28938_3523)">
<g clip-path="url(#clip0_28938_3523)">
<rect x="256.32" y="99.9023" width="6" height="6" rx="2" fill="black" fill-opacity="0.3"/>
</g>
</g>
<path d="M269.201 106.902V99.6296H271.658C272.227 99.6296 272.693 99.7267 273.058 99.9208C273.422 100.113 273.692 100.377 273.867 100.713C274.042 101.049 274.13 101.431 274.13 101.86C274.13 102.288 274.042 102.668 273.867 103C273.692 103.331 273.423 103.592 273.061 103.781C272.699 103.968 272.236 104.061 271.673 104.061H269.684V103.266H271.644C272.032 103.266 272.345 103.209 272.582 103.096C272.821 102.982 272.994 102.821 273.1 102.613C273.209 102.402 273.263 102.151 273.263 101.86C273.263 101.569 273.209 101.314 273.1 101.096C272.991 100.878 272.817 100.71 272.578 100.592C272.339 100.471 272.023 100.411 271.63 100.411H270.082V106.902H269.201ZM272.624 103.635L274.414 106.902H273.391L271.63 103.635H272.624ZM281.734 103.266C281.734 104.033 281.595 104.696 281.318 105.255C281.041 105.813 280.661 106.244 280.178 106.547C279.695 106.85 279.144 107.002 278.524 107.002C277.903 107.002 277.352 106.85 276.869 106.547C276.386 106.244 276.006 105.813 275.729 105.255C275.452 104.696 275.313 104.033 275.313 103.266C275.313 102.499 275.452 101.836 275.729 101.277C276.006 100.719 276.386 100.288 276.869 99.9847C277.352 99.6817 277.903 99.5302 278.524 99.5302C279.144 99.5302 279.695 99.6817 280.178 99.9847C280.661 100.288 281.041 100.719 281.318 101.277C281.595 101.836 281.734 102.499 281.734 103.266ZM280.882 103.266C280.882 102.636 280.776 102.105 280.566 101.672C280.357 101.238 280.074 100.91 279.717 100.688C279.362 100.465 278.964 100.354 278.524 100.354C278.083 100.354 277.684 100.465 277.327 100.688C276.972 100.91 276.689 101.238 276.478 101.672C276.27 102.105 276.166 102.636 276.166 103.266C276.166 103.896 276.27 104.427 276.478 104.86C276.689 105.294 276.972 105.622 277.327 105.844C277.684 106.067 278.083 106.178 278.524 106.178C278.964 106.178 279.362 106.067 279.717 105.844C280.074 105.622 280.357 105.294 280.566 104.86C280.776 104.427 280.882 103.896 280.882 103.266ZM284.095 99.6296V106.902H283.215V99.6296H284.095Z" fill="black" fill-opacity="0.3"/>
<path d="M312.673 107.002C312.145 107.002 311.676 106.913 311.266 106.735C310.859 106.558 310.54 106.315 310.308 106.007C310.078 105.697 309.964 105.346 309.967 104.953C309.964 104.647 310.031 104.367 310.165 104.111C310.3 103.855 310.483 103.642 310.712 103.472C310.944 103.299 311.202 103.189 311.487 103.142V103.092C311.112 103.009 310.809 102.819 310.577 102.52C310.348 102.22 310.234 101.873 310.237 101.48C310.234 101.106 310.338 100.772 310.549 100.478C310.76 100.185 311.049 99.954 311.415 99.7859C311.782 99.6154 312.201 99.5302 312.673 99.5302C313.139 99.5302 313.554 99.6154 313.919 99.7859C314.286 99.954 314.575 100.185 314.786 100.478C314.999 100.772 315.105 101.106 315.105 101.48C315.105 101.873 314.988 102.22 314.754 102.52C314.522 102.819 314.222 103.009 313.855 103.092V103.142C314.139 103.189 314.395 103.299 314.622 103.472C314.852 103.642 315.034 103.855 315.169 104.111C315.306 104.367 315.375 104.647 315.375 104.953C315.375 105.346 315.259 105.697 315.027 106.007C314.795 106.315 314.475 106.558 314.068 106.735C313.663 106.913 313.198 107.002 312.673 107.002ZM312.673 105.986C312.945 105.986 313.182 105.94 313.383 105.848C313.584 105.753 313.74 105.62 313.852 105.45C313.963 105.279 314.02 105.083 314.022 104.86C314.02 104.628 313.959 104.424 313.841 104.246C313.725 104.066 313.565 103.925 313.362 103.824C313.16 103.722 312.931 103.671 312.673 103.671C312.412 103.671 312.18 103.722 311.977 103.824C311.773 103.925 311.612 104.066 311.494 104.246C311.378 104.424 311.321 104.628 311.323 104.86C311.321 105.083 311.375 105.279 311.487 105.45C311.598 105.618 311.754 105.749 311.955 105.844C312.159 105.939 312.398 105.986 312.673 105.986ZM312.673 102.673C312.895 102.673 313.092 102.628 313.262 102.538C313.435 102.448 313.571 102.323 313.67 102.162C313.77 102.001 313.821 101.815 313.823 101.604C313.821 101.396 313.771 101.213 313.674 101.057C313.577 100.899 313.442 100.777 313.269 100.691C313.096 100.604 312.897 100.56 312.673 100.56C312.443 100.56 312.241 100.604 312.065 100.691C311.893 100.777 311.758 100.899 311.661 101.057C311.566 101.213 311.52 101.396 311.522 101.604C311.52 101.815 311.567 102.001 311.664 102.162C311.763 102.32 311.9 102.446 312.072 102.538C312.248 102.628 312.448 102.673 312.673 102.673ZM317.503 106.98C317.288 106.98 317.103 106.905 316.949 106.753C316.795 106.602 316.719 106.417 316.722 106.199C316.719 105.986 316.795 105.804 316.949 105.652C317.103 105.501 317.288 105.425 317.503 105.425C317.711 105.425 317.892 105.501 318.046 105.652C318.203 105.804 318.282 105.986 318.284 106.199C318.282 106.344 318.244 106.475 318.171 106.593C318.1 106.712 318.005 106.806 317.887 106.877C317.771 106.946 317.643 106.98 317.503 106.98ZM322.282 107.002C321.754 107.002 321.285 106.913 320.876 106.735C320.469 106.558 320.149 106.315 319.917 106.007C319.687 105.697 319.574 105.346 319.576 104.953C319.574 104.647 319.64 104.367 319.775 104.111C319.91 103.855 320.092 103.642 320.322 103.472C320.554 103.299 320.812 103.189 321.096 103.142V103.092C320.722 103.009 320.419 102.819 320.187 102.52C319.957 102.22 319.844 101.873 319.846 101.48C319.844 101.106 319.948 100.772 320.158 100.478C320.369 100.185 320.658 99.954 321.025 99.7859C321.392 99.6154 321.811 99.5302 322.282 99.5302C322.748 99.5302 323.164 99.6154 323.528 99.7859C323.895 99.954 324.184 100.185 324.395 100.478C324.608 100.772 324.714 101.106 324.714 101.48C324.714 101.873 324.597 102.22 324.363 102.52C324.131 102.819 323.831 103.009 323.464 103.092V103.142C323.749 103.189 324.004 103.299 324.232 103.472C324.461 103.642 324.643 103.855 324.778 104.111C324.916 104.367 324.984 104.647 324.984 104.953C324.984 105.346 324.868 105.697 324.636 106.007C324.404 106.315 324.085 106.558 323.678 106.735C323.273 106.913 322.808 107.002 322.282 107.002ZM322.282 105.986C322.554 105.986 322.791 105.94 322.992 105.848C323.193 105.753 323.35 105.62 323.461 105.45C323.572 105.279 323.629 105.083 323.631 104.86C323.629 104.628 323.569 104.424 323.45 104.246C323.334 104.066 323.174 103.925 322.971 103.824C322.77 103.722 322.54 103.671 322.282 103.671C322.022 103.671 321.79 103.722 321.586 103.824C321.382 103.925 321.221 104.066 321.103 104.246C320.987 104.424 320.93 104.628 320.933 104.86C320.93 105.083 320.985 105.279 321.096 105.45C321.207 105.618 321.363 105.749 321.565 105.844C321.768 105.939 322.007 105.986 322.282 105.986ZM322.282 102.673C322.504 102.673 322.701 102.628 322.871 102.538C323.044 102.448 323.18 102.323 323.28 102.162C323.379 102.001 323.43 101.815 323.433 101.604C323.43 101.396 323.38 101.213 323.283 101.057C323.186 100.899 323.051 100.777 322.879 100.691C322.706 100.604 322.507 100.56 322.282 100.56C322.052 100.56 321.85 100.604 321.675 100.691C321.502 100.777 321.367 100.899 321.27 101.057C321.175 101.213 321.129 101.396 321.131 101.604C321.129 101.815 321.176 102.001 321.273 102.162C321.373 102.32 321.509 102.446 321.682 102.538C321.857 102.628 322.057 102.673 322.282 102.673ZM328.991 107.002C328.48 107.002 328.025 106.914 327.627 106.739C327.232 106.564 326.919 106.32 326.69 106.007C326.46 105.695 326.338 105.334 326.324 104.924H327.659C327.671 105.121 327.736 105.292 327.855 105.439C327.973 105.584 328.13 105.696 328.327 105.777C328.523 105.857 328.744 105.897 328.987 105.897C329.248 105.897 329.479 105.852 329.68 105.762C329.881 105.67 330.039 105.542 330.152 105.379C330.266 105.216 330.321 105.027 330.319 104.814C330.321 104.594 330.265 104.4 330.149 104.232C330.033 104.064 329.865 103.932 329.644 103.838C329.427 103.743 329.164 103.696 328.856 103.696H328.213V102.68H328.856C329.109 102.68 329.331 102.636 329.52 102.549C329.712 102.461 329.862 102.338 329.971 102.179C330.08 102.018 330.133 101.833 330.131 101.622C330.133 101.416 330.087 101.237 329.992 101.086C329.9 100.932 329.769 100.812 329.598 100.727C329.43 100.642 329.232 100.599 329.005 100.599C328.783 100.599 328.577 100.639 328.387 100.72C328.198 100.8 328.045 100.915 327.929 101.064C327.813 101.211 327.752 101.386 327.744 101.59H326.477C326.486 101.183 326.603 100.825 326.828 100.517C327.056 100.207 327.359 99.9658 327.737 99.793C328.116 99.6178 328.541 99.5302 329.012 99.5302C329.498 99.5302 329.919 99.6213 330.276 99.8036C330.636 99.9835 330.914 100.226 331.111 100.532C331.307 100.837 331.406 101.174 331.406 101.544C331.408 101.953 331.287 102.297 331.044 102.574C330.802 102.85 330.485 103.032 330.092 103.117V103.174C330.603 103.245 330.995 103.434 331.267 103.742C331.542 104.047 331.678 104.427 331.676 104.882C331.676 105.289 331.56 105.654 331.328 105.975C331.098 106.295 330.781 106.546 330.376 106.728C329.973 106.911 329.512 107.002 328.991 107.002ZM334.059 101.448L335.16 103.461L336.279 101.448H337.639L335.995 104.175L337.667 106.902H336.314L335.16 104.939L334.017 106.902H332.653L334.315 104.175L332.696 101.448H334.059Z" fill="black" fill-opacity="0.3"/>
<defs>
<filter id="filter0_i_28938_3523" x="256.32" y="99.9023" width="7" height="8" filterUnits="userSpaceOnUse" color-interpolation-filters="sRGB">
<feFlood flood-opacity="0" result="BackgroundImageFix"/>
<feBlend mode="normal" in="SourceGraphic" in2="BackgroundImageFix" result="shape"/>
<feColorMatrix in="SourceAlpha" type="matrix" values="0 0 0 0 0 0 0 0 0 0 0 0 0 0 0 0 0 0 127 0" result="hardAlpha"/>
<feOffset dx="1" dy="2"/>
<feGaussianBlur stdDeviation="1.5"/>
<feComposite in2="hardAlpha" operator="arithmetic" k2="-1" k3="1"/>
<feColorMatrix type="matrix" values="0 0 0 0 1 0 0 0 0 1 0 0 0 0 1 0 0 0 0.2 0"/>
<feBlend mode="normal" in2="shape" result="effect1_innerShadow_28938_3523"/>
</filter>
<linearGradient id="paint0_linear_28938_3523" x1="195.7" y1="2.2791e-05" x2="201.76" y2="138.486" gradientUnits="userSpaceOnUse">
<stop/>
<stop offset="1"/>
</linearGradient>
<linearGradient id="paint1_linear_28938_3523" x1="159.655" y1="188.123" x2="169.24" y2="277.067" gradientUnits="userSpaceOnUse">
<stop/>
<stop offset="1"/>
</linearGradient>
<linearGradient id="paint2_linear_28938_3523" x1="86.9112" y1="138.737" x2="102.425" y2="194.616" gradientUnits="userSpaceOnUse">
<stop/>
<stop offset="1"/>
</linearGradient>
<linearGradient id="paint3_linear_28938_3523" x1="97.5501" y1="100.944" x2="106.283" y2="143.595" gradientUnits="userSpaceOnUse">
<stop/>
<stop offset="1"/>
</linearGradient>
<clipPath id="clip0_28938_3523">
<rect x="256.32" y="99.9023" width="6" height="6" rx="2" fill="white"/>
</clipPath>
</defs>
</svg>
